<svg width="95" height="99" viewBox="0 0 95 99" fill="none" xmlns="http://www.w3.org/2000/svg">
<path d="M94.9902 49.5C94.9902 22.1648 73.7249 0 47.4951 0C21.2653 0 0 22.1678 0 49.5C0 76.8322 21.2653 99 47.4951 99C67.7263 99 85.0112 85.8127 91.8558 67.2231C91.8558 67.2172 91.8558 67.2084 91.8441 67.2084H67.694C67.694 67.2084 67.6882 67.2084 67.6852 67.2113C62.9146 73.5215 55.6293 77.5608 47.4951 77.5608C37.0137 77.5608 27.963 70.8599 23.8328 61.2243C22.7782 58.7625 24.0207 57.2085 26.6381 57.7784C32.5956 59.0769 35.8681 60.2637 46.981 60.2637C61.293 60.2637 69.8855 59.4764 91.3329 56.5857C93.2247 56.3301 94.7024 54.8143 94.8581 52.9136C94.9462 51.8384 94.9902 50.7515 94.9902 49.5ZM29.5023 28.9391V32.7875C29.5023 34.18 28.3772 35.308 26.9818 35.308C25.5865 35.308 24.4731 34.1829 24.4731 32.7875V28.9391C24.4731 27.5467 25.5982 26.4215 26.9818 26.4215C28.3655 26.4215 29.5023 27.5467 29.5023 28.9391ZM60.35 28.9391V32.7875C60.35 34.18 59.225 35.308 57.8414 35.308C56.4577 35.308 55.3238 34.1829 55.3238 32.7875V28.9391C55.3238 27.5467 56.4489 26.4215 57.8414 26.4215C59.2338 26.4215 60.35 27.5467 60.35 28.9391ZM44.4753 34.9408C44.4753 41.7915 38.9232 47.3526 32.0639 47.3526C25.2046 47.3526 19.6526 41.7886 19.6526 34.9408V31.1688C19.6526 24.3093 25.2046 18.7454 32.0639 18.7454C38.9232 18.7454 44.4753 24.3093 44.4753 31.1688V34.9408ZM75.3347 34.9408C75.3347 41.7915 69.771 47.3526 62.9117 47.3526C56.0524 47.3526 50.5003 41.7886 50.5003 34.9408V31.1688C50.5003 24.3093 56.0641 18.7454 62.9117 18.7454C69.7592 18.7454 75.3347 24.3093 75.3347 31.1688V34.9408Z" fill="#FDF063"/>
</svg>
